<svg xmlns="http://www.w3.org/2000/svg" viewBox="0 0 599.31 205.74"><defs><style>.cls-1{fill:#120e46;}.cls-2{fill:#ffe610;}.cls-3{fill:none;stroke:#ffe610;stroke-miterlimit:10;stroke-width:15.61px;}</style></defs><g id="Layer_2" data-name="Layer 2"><g id="Layer_1-2" data-name="Layer 1"><rect class="cls-1" x="465.36" y="49.53" width="110.74" height="110.74"/><path class="cls-2" d="M586.5,87.53v66.88h-8.35A13.58,13.58,0,0,0,564.57,168v8.36H497.69V168a13.64,13.64,0,0,0-13.64-13.63h-8.29V87.53h8a14,14,0,0,0,14-14v-8h66.88v8a13.9,13.9,0,0,0,13.9,13.9Z" transform="translate(-10.4 -16.07)"/><path class="cls-1" d="M480.76,112.44a12.07,12.07,0,0,1,0,17.06l-5.19,5.19L461.85,121l13.72-13.72Z" transform="translate(-10.4 -16.07)"/><path class="cls-1" d="M539.62,171.3l5.23,5.23-13.72,13.72-13.72-13.72,5.22-5.23A12,12,0,0,1,539.62,171.3Z" transform="translate(-10.4 -16.07)"/><path class="cls-1" d="M531.13,51.69l13.72,13.72-5,5a12.33,12.33,0,0,1-17.46,0l-5-5Z" transform="translate(-10.4 -16.07)"/><path class="cls-1" d="M600.41,121l-13.72,13.72-5-5a12.3,12.3,0,0,1,0-17.39l5-5Z" transform="translate(-10.4 -16.07)"/><path class="cls-1" d="M500.91,126.09l-3,3V112.85l3,3A7.25,7.25,0,0,1,500.91,126.09Z" transform="translate(-10.4 -16.07)"/><path class="cls-1" d="M497.91,87.74h13.16v4.79a8.38,8.38,0,0,1-8.38,8.37h-4.78Z" transform="translate(-10.4 -16.07)"/><path class="cls-1" d="M511.07,149.22v5H497.91V141h5A8.19,8.19,0,0,1,511.07,149.22Z" transform="translate(-10.4 -16.07)"/><path class="cls-1" d="M536.23,151.16l3,3H523l3-3A7.22,7.22,0,0,1,536.23,151.16Z" transform="translate(-10.4 -16.07)"/><path class="cls-1" d="M523,87.74h16.23l-2.87,2.89a7.42,7.42,0,0,1-10.48,0Z" transform="translate(-10.4 -16.07)"/><path class="cls-1" d="M564.35,87.74V100.9h-4.82a8.34,8.34,0,0,1-8.34-8.34V87.74Z" transform="translate(-10.4 -16.07)"/><path class="cls-1" d="M561.45,115.75l2.9-2.9v16.24l-2.9-2.91A7.36,7.36,0,0,1,561.45,115.75Z" transform="translate(-10.4 -16.07)"/><path class="cls-1" d="M559.34,141h5v13.16H551.19v-5A8.15,8.15,0,0,1,559.34,141Z" transform="translate(-10.4 -16.07)"/><path class="cls-2" d="M500.91,115.85a7.25,7.25,0,0,1,0,10.24l-3,3V112.85Z" transform="translate(-10.4 -16.07)"/><path class="cls-2" d="M536.23,151.16l3,3H523l3-3A7.22,7.22,0,0,1,536.23,151.16Z" transform="translate(-10.4 -16.07)"/><path class="cls-2" d="M523,87.74h16.23l-2.87,2.89a7.42,7.42,0,0,1-10.48,0Z" transform="translate(-10.4 -16.07)"/><path class="cls-2" d="M564.35,112.85v16.24l-2.9-2.91a7.36,7.36,0,0,1,0-10.43Z" transform="translate(-10.4 -16.07)"/><path class="cls-1" d="M500.91,126.09l-3,3-.12.11L489.56,121l8.23-8.23.12.11,3,3A7.25,7.25,0,0,1,500.91,126.09Z" transform="translate(-10.4 -16.07)"/><path class="cls-1" d="M539.36,154.3l-8.23,8.24-8.23-8.24.11-.11,3-3a7.22,7.22,0,0,1,10.2,0l3,3Z" transform="translate(-10.4 -16.07)"/><path class="cls-1" d="M539.36,87.63l-.12.11-2.87,2.89a7.42,7.42,0,0,1-10.48,0L523,87.74l-.11-.11,8.23-8.23Z" transform="translate(-10.4 -16.07)"/><path class="cls-1" d="M572.69,121l-8.22,8.23-.12-.11-2.9-2.91a7.36,7.36,0,0,1,0-10.43l2.9-2.9.12-.11Z" transform="translate(-10.4 -16.07)"/><path class="cls-1" d="M513,124l-1.8,1.8V116.1l1.8,1.8A4.35,4.35,0,0,1,513,124Z" transform="translate(-10.4 -16.07)"/><path class="cls-1" d="M511.2,101h7.89v2.87a5,5,0,0,1-5,5H511.2Z" transform="translate(-10.4 -16.07)"/><path class="cls-1" d="M519.09,137.91v3H511.2V133h3A4.9,4.9,0,0,1,519.09,137.91Z" transform="translate(-10.4 -16.07)"/><path class="cls-1" d="M534.19,139.09,536,140.9h-9.74l1.81-1.81A4.33,4.33,0,0,1,534.19,139.09Z" transform="translate(-10.4 -16.07)"/><path class="cls-1" d="M526.25,101H536l-1.73,1.73a4.43,4.43,0,0,1-6.28,0Z" transform="translate(-10.4 -16.07)"/><path class="cls-1" d="M551.06,101v7.9h-2.89a5,5,0,0,1-5-5V101Z" transform="translate(-10.4 -16.07)"/><path class="cls-1" d="M549.32,117.84l1.74-1.74v9.74l-1.74-1.74A4.42,4.42,0,0,1,549.32,117.84Z" transform="translate(-10.4 -16.07)"/><path class="cls-1" d="M548.06,133h3v7.89h-7.89v-3A4.88,4.88,0,0,1,548.06,133Z" transform="translate(-10.4 -16.07)"/><path class="cls-2" d="M513,117.9a4.35,4.35,0,0,1,0,6.14l-1.8,1.8V116.1Z" transform="translate(-10.4 -16.07)"/><path class="cls-2" d="M534.19,139.09,536,140.9h-9.74l1.81-1.81A4.33,4.33,0,0,1,534.19,139.09Z" transform="translate(-10.4 -16.07)"/><path class="cls-2" d="M526.25,101H536l-1.73,1.73a4.43,4.43,0,0,1-6.28,0Z" transform="translate(-10.4 -16.07)"/><path class="cls-2" d="M551.06,116.1v9.74l-1.74-1.74a4.42,4.42,0,0,1,0-6.26Z" transform="translate(-10.4 -16.07)"/><path class="cls-1" d="M513,124l-1.8,1.8-.07.07L506.19,121l4.94-4.94.07.07,1.8,1.8A4.35,4.35,0,0,1,513,124Z" transform="translate(-10.4 -16.07)"/><path class="cls-1" d="M536.07,141l-4.94,4.94L526.19,141l1.88-1.88a4.33,4.33,0,0,1,6.12,0Z" transform="translate(-10.4 -16.07)"/><path class="cls-1" d="M536.07,101l-1.8,1.79a4.43,4.43,0,0,1-6.28,0l-1.8-1.79L531.13,96Z" transform="translate(-10.4 -16.07)"/><path class="cls-1" d="M556.07,121l-4.94,4.94-.07-.07-1.74-1.74a4.42,4.42,0,0,1,0-6.26l1.74-1.74.07-.07Z" transform="translate(-10.4 -16.07)"/><path class="cls-2" d="M10.4,70.62V22.88H25.48V71.76c0,18.51,6.92,24.6,17.21,24.6s17.58-6.09,17.58-24.6V22.88H74.78V70.62c0,27.92-12.38,38.84-32.09,38.84S10.4,98.54,10.4,70.62Z" transform="translate(-10.4 -16.07)"/><path class="cls-2" d="M94.67,44h12.27l1.14,6.81h.42c5.38-4.62,12.22-8.37,19.24-8.37,16,0,25.12,12.79,25.12,32.5,0,21.84-13.06,34.48-27.25,34.48-5.67,0-11.23-2.55-16.44-7l.47,10.61v20.12h-15Zm42.79,31.1c0-12.74-4.16-20.28-13.88-20.28-4.63,0-9,2.34-13.94,7.18V91.78c4.58,3.9,9.1,5.3,12.8,5.3C131,97.08,137.46,89.6,137.46,75.14Z" transform="translate(-10.4 -16.07)"/><path class="cls-2" d="M168,44h12.27l1.14,6.81h.42c5.38-4.62,12.22-8.37,19.24-8.37,16,0,25.12,12.79,25.12,32.5,0,21.84-13.06,34.48-27.25,34.48-5.67,0-11.24-2.55-16.44-7l.47,10.61v20.12H168Zm42.79,31.1c0-12.74-4.16-20.28-13.88-20.28-4.63,0-9,2.34-13.94,7.18V91.78c4.58,3.9,9.1,5.3,12.79,5.3C204.28,97.08,210.78,89.6,210.78,75.14Z" transform="translate(-10.4 -16.07)"/><path class="cls-2" d="M234.44,100.57l7-9.52c5.67,4.42,11.15,7.13,17.63,7.13,7,0,10.24-3.28,10.24-7.65,0-5.35-6.91-7.75-13.73-10.35-8.37-3.14-17.94-8-17.94-18.61,0-11.08,8.95-19.09,23.25-19.09a34.42,34.42,0,0,1,21.22,7.65l-6.87,9.2c-4.47-3.28-9-5.56-14-5.56-6.42,0-9.46,3.06-9.46,7.07,0,5,6.45,7,13.36,9.51,8.63,3.23,18.31,7.39,18.31,19.3,0,11-8.69,19.81-24.81,19.81A39.92,39.92,0,0,1,234.44,100.57Z" transform="translate(-10.4 -16.07)"/><path class="cls-2" d="M293.38,90.74c0-13.68,11.34-20.8,37.55-23.61-.21-6.86-3-12.58-11.6-12.58-6.34,0-12.32,2.86-17.94,6.29l-5.51-10c7-4.42,16.07-8.37,26.21-8.37,16,0,23.82,9.83,23.82,27.61V107.9H333.63l-1.14-7.07h-.42c-5.72,4.89-12.27,8.63-19.81,8.63C301.08,109.46,293.38,101.87,293.38,90.74Zm37.55.05V76.44c-17.32,2.18-23.09,6.71-23.09,13.16,0,5.64,3.85,8.11,9.2,8.11C322.24,97.71,326.2,95.16,330.93,90.79Z" transform="translate(-10.4 -16.07)"/><path class="cls-2" d="M363.89,91.47V16.07h15V92.25c0,3.69,1.67,5,3.23,5a8.8,8.8,0,0,0,2.34-.26l1.87,11.18a21,21,0,0,1-7.91,1.3C367.79,109.46,363.89,102.6,363.89,91.47Z" transform="translate(-10.4 -16.07)"/><path class="cls-2" d="M395.69,90.74c0-13.68,11.34-20.8,37.55-23.61-.21-6.86-3-12.58-11.6-12.58-6.34,0-12.32,2.86-17.94,6.29l-5.51-10c7-4.42,16.07-8.37,26.21-8.37,16,0,23.81,9.83,23.81,27.61V107.9H435.94l-1.14-7.07h-.42c-5.72,4.89-12.27,8.63-19.81,8.63C403.39,109.46,395.69,101.87,395.69,90.74Zm37.55.05V76.44c-17.32,2.18-23.09,6.71-23.09,13.16,0,5.64,3.85,8.11,9.2,8.11C424.55,97.71,428.5,95.16,433.24,90.79Z" transform="translate(-10.4 -16.07)"/><path class="cls-2" d="M63.6,144.38H99.17v8.78H74v16.7H95.42v8.79H74v24.58H63.6Z" transform="translate(-10.4 -16.07)"/><path class="cls-2" d="M103,191.35c0-9.46,7.85-14.39,26-16.34-.14-4.75-2-8.71-8-8.71-4.4,0-8.54,2-12.42,4.36l-3.82-6.92c4.86-3.06,11.12-5.79,18.14-5.79,11.06,0,16.49,6.8,16.49,19.11v26.17h-8.49l-.8-4.89h-.28c-4,3.38-8.5,6-13.72,6C108.31,204.31,103,199.06,103,191.35Zm5.31-45.6a5.48,5.48,0,1,1,5.47,5.47A5.34,5.34,0,0,1,108.29,145.75ZM129,191.39v-9.93c-12,1.51-16,4.64-16,9.1,0,3.91,2.66,5.62,6.37,5.62S125.7,194.42,129,191.39Zm-2.17-45.64a5.47,5.47,0,1,1,5.47,5.47A5.34,5.34,0,0,1,126.8,145.75Z" transform="translate(-10.4 -16.07)"/><path class="cls-2" d="M151.8,159h8.49l.8,7.88h.28c3.15-5.76,7.83-9,12.57-9a11.26,11.26,0,0,1,5,.9l-1.8,9a15.05,15.05,0,0,0-4.54-.72c-3.52,0-7.77,2.41-10.43,9.14v27H151.8Z" transform="translate(-10.4 -16.07)"/><path class="cls-2" d="M181.77,181.17c0-14.4,9-23.22,18.72-23.22,5,0,8.17,1.87,11.59,4.86l-.4-7.13v-16h10.37v63.57h-8.5l-.79-4.78h-.29c-3.27,3.27-7.81,5.86-12.56,5.86C188.9,204.31,181.77,195.75,181.77,181.17Zm29.91,9.61V170.19a13,13,0,0,0-9-3.67c-5.61,0-10.26,5.32-10.26,14.54,0,9.61,3.67,14.69,10.05,14.69C205.89,195.75,208.77,194.23,211.68,190.78Z" transform="translate(-10.4 -16.07)"/><path class="cls-2" d="M236.77,188.33V167.27h-6.3V159.5l6.84-.47L238.54,147h8.6V159h11.27v8.24H247.14v21c0,5.2,2,7.76,6.27,7.76a13.66,13.66,0,0,0,4.6-1l1.77,7.63a28.45,28.45,0,0,1-9,1.62C240.55,204.31,236.77,197.87,236.77,188.33Z" transform="translate(-10.4 -16.07)"/><path class="cls-2" d="M257,220.62l1.91-7.74a13.07,13.07,0,0,0,3.82.69c4,0,5.07-2.74,5.07-7.89V159h10.37V205.5c0,9.36-3.53,16.31-14,16.31A19.59,19.59,0,0,1,257,220.62Zm9.62-75.2c0-3.49,2.73-5.87,6.4-5.87s6.41,2.38,6.41,5.87-2.73,5.87-6.41,5.87S266.64,148.84,266.64,145.42Z" transform="translate(-10.4 -16.07)"/><path class="cls-2" d="M289,191.35c0-9.46,7.85-14.39,26-16.34-.14-4.75-2.05-8.71-8-8.71-4.39,0-8.53,2-12.42,4.36l-3.81-6.92c4.86-3.06,11.12-5.79,18.14-5.79,11.05,0,16.49,6.8,16.49,19.11v26.17h-8.5l-.79-4.89h-.29c-4,3.38-8.49,6-13.71,6C294.34,204.31,289,199.06,289,191.35Zm5.31-45.6a5.47,5.47,0,1,1,5.47,5.47A5.34,5.34,0,0,1,294.32,145.75ZM315,191.39v-9.93c-12,1.51-16,4.64-16,9.1,0,3.91,2.66,5.62,6.37,5.62S311.72,194.42,315,191.39Zm-2.18-45.64a5.48,5.48,0,1,1,5.47,5.47A5.34,5.34,0,0,1,312.82,145.75Z" transform="translate(-10.4 -16.07)"/><path class="cls-2" d="M337.82,159h8.5l.79,6h.29c4-3.85,8.46-7.05,14.51-7.05,9.46,0,13.6,6.41,13.6,17.57v27.71H365.15V176.85c0-7.27-2.09-10-6.88-10-3.89,0-6.44,1.91-10.08,5.51v30.88H337.82Z" transform="translate(-10.4 -16.07)"/><path class="cls-2" d="M383.83,198.16l4.83-6.59c3.92,3.06,7.72,4.93,12.2,4.93,4.82,0,7.09-2.27,7.09-5.29,0-3.71-4.79-5.36-9.5-7.16-5.8-2.18-12.42-5.51-12.42-12.89,0-7.67,6.19-13.21,16.09-13.21a23.84,23.84,0,0,1,14.69,5.29l-4.76,6.37c-3.09-2.27-6.21-3.85-9.68-3.85-4.44,0-6.55,2.12-6.55,4.9,0,3.49,4.46,4.82,9.25,6.58,6,2.24,12.67,5.12,12.67,13.36,0,7.59-6,13.71-17.17,13.71A27.65,27.65,0,0,1,383.83,198.16Z" transform="translate(-10.4 -16.07)"/><path class="cls-2" d="M426.76,188.33V167.27h-6.3V159.5l6.84-.47L428.53,147h8.6V159H448.4v8.24H437.13v21c0,5.2,2,7.76,6.26,7.76a13.66,13.66,0,0,0,4.61-1l1.77,7.63a28.5,28.5,0,0,1-9,1.62C430.54,204.31,426.76,197.87,426.76,188.33Z" transform="translate(-10.4 -16.07)"/><circle class="cls-3" cx="520.76" cy="104.77" r="70.75"/></g></g></svg>